<?xml version="1.0" encoding="UTF-8"?>
<svg width="70px" height="70px" viewBox="0 0 70 70" version="1.1" xmlns="http://www.w3.org/2000/svg" xmlns:xlink="http://www.w3.org/1999/xlink">
    <title>Map</title>
    <defs>
        <linearGradient x1="79.0316233%" y1="0%" x2="20.9683767%" y2="100%" id="linearGradient-1">
            <stop stop-color="#1AEAE3" offset="0%"></stop>
            <stop stop-color="#0873C7" offset="100%"></stop>
        </linearGradient>
        <linearGradient x1="88.924824%" y1="0%" x2="11.075176%" y2="100%" id="linearGradient-2">
            <stop stop-color="#1AEAE3" offset="0%"></stop>
            <stop stop-color="#0873C7" offset="100%"></stop>
        </linearGradient>
        <linearGradient x1="100%" y1="17.3063781%" x2="0%" y2="82.6936219%" id="linearGradient-3">
            <stop stop-color="#1AEAE3" offset="0%"></stop>
            <stop stop-color="#0873C7" offset="100%"></stop>
        </linearGradient>
        <linearGradient x1="73.1052837%" y1="0%" x2="26.8947163%" y2="100%" id="linearGradient-4">
            <stop stop-color="#1AEAE3" offset="0%"></stop>
            <stop stop-color="#0873C7" offset="100%"></stop>
        </linearGradient>
        <linearGradient x1="100%" y1="36.1797927%" x2="0%" y2="63.8202073%" id="linearGradient-5">
            <stop stop-color="#1AEAE3" offset="0%"></stop>
            <stop stop-color="#0873C7" offset="100%"></stop>
        </linearGradient>
        <linearGradient x1="100%" y1="31.1741954%" x2="0%" y2="68.8258046%" id="linearGradient-6">
            <stop stop-color="#1AEAE3" offset="0%"></stop>
            <stop stop-color="#0873C7" offset="100%"></stop>
        </linearGradient>
        <linearGradient x1="100%" y1="17.8509918%" x2="0%" y2="82.1490082%" id="linearGradient-7">
            <stop stop-color="#1AEAE3" offset="0%"></stop>
            <stop stop-color="#0873C7" offset="100%"></stop>
        </linearGradient>
    </defs>
    <g id="Map" stroke="none" stroke-width="1" fill="none" fill-rule="evenodd">
        <g id="Group" transform="translate(6.500000, 19.000000)" fill-rule="nonzero">
            <path d="M19.3841267,20.4506293 C19.3229267,20.4092293 18.3005266,19.4894292 18.0467266,19.1636292 C17.7983266,18.8342292 17.3195266,18.7478292 17.0693266,18.6164292 C16.8173266,18.4868292 15.1541265,17.9378292 14.7545265,18.2222292 C14.3603265,18.5066292 13.8167265,18.6794292 13.6061264,18.2222292 C13.3991264,17.7614292 13.2947264,17.6966292 13.0031264,17.6318292 C12.7115264,17.5670292 12.8573264,17.2196291 12.8375264,16.9136291 C12.8141264,16.6058291 12.6485264,16.2782291 12.4397264,16.4978291 C12.2309264,16.7174291 11.5217264,17.2862291 11.4191264,16.9982291 C11.3147264,16.7156291 10.8125263,15.5366291 11.5649264,15.3152291 C12.3137264,15.0992291 12.9401264,15.2270291 13.1291264,15.4250291 C13.3163264,15.6194291 13.4603264,16.1684291 13.6925264,16.1018291 C13.9229265,16.0352291 13.7969265,15.6176291 13.8797265,15.2720291 C13.9625265,14.924629 14.5079265,14.463829 14.7545265,13.985029 C15.0047265,13.500829 15.0461265,13.218229 15.3575265,13.086829 C15.6743265,12.957229 15.8399265,12.782629 16.1315265,12.563029 C16.4249266,12.3434289 16.8803266,12.1490289 17.0513266,12.0374289 C17.2187266,11.9258289 17.9675266,11.5550289 18.2159266,11.6216289 C18.4661266,11.6882289 18.6317266,11.6000289 18.4247266,11.2292289 C18.2159266,10.8584289 17.9459266,9.74242884 17.5499266,9.24202882 C17.1539266,8.7416288 17.1107266,8.6066288 16.9235266,8.12962878 C16.7363266,7.64542876 16.5257266,7.23142874 16.3799266,7.55902875 C16.2341265,7.88662877 15.9227265,8.32402878 15.7553265,7.90822877 C15.5897265,7.49242875 15.6095265,7.51222875 15.4007265,7.31782874 C15.1937265,7.12162874 15.0245265,7.07662873 14.7347265,6.98842873 C14.4431265,6.90022873 14.1515265,7.01182873 14.1713265,7.29442874 C14.1911265,7.57882875 13.8977265,8.08462877 14.0885265,8.45722879 C14.2757265,8.8298288 14.4431265,9.22222882 14.1911265,9.35362882 C13.9427265,9.48322883 14.1911265,10.2716289 13.9427265,10.2482289 C13.6925264,10.2284289 13.5683264,10.2716289 13.5683264,9.98542885 C13.5683264,9.70462884 13.6925264,9.26722882 13.2317264,9.26722882 C12.7745264,9.26722882 12.5027264,9.02782881 12.1697264,8.7848288 C11.8349264,8.54542879 11.5649264,8.6750288 11.6477264,8.13142878 C11.7305264,7.58242875 11.6081264,7.38802875 11.9807264,7.08202873 C12.3569264,6.77782872 12.4415264,6.59962872 12.7115264,6.73282872 C12.9833264,6.86422873 13.1687264,6.86422873 13.3397264,6.71122872 C13.5053264,6.55822871 13.8167265,6.62122872 13.8167265,6.42682871 C13.8167265,6.2306287 13.4621264,6.2306287 13.5053264,5.90482869 C13.5449264,5.57182867 13.7141264,5.75002868 13.7753265,5.20282866 C13.8365265,4.65562864 13.3793264,3.82582861 12.9203264,3.93562861 C12.4595264,4.04362861 11.7539264,4.67902864 11.6081264,4.39282863 C11.4605264,4.11022862 11.1689263,4.23982862 10.6055263,4.43782863 C10.0421263,4.63582864 7.70752621,4.24342862 7.5419262,4.04362861 C7.5419262,4.04362861 7.14412619,3.7610286 6.93532618,3.91402861 C6.72832617,4.06702861 5.89312614,4.00042861 5.64292613,3.95902861 C5.39092612,3.91402861 5.16232611,4.24162862 4.8527261,4.13362862 C4.53592608,4.02382861 3.43252604,3.8042286 3.18412603,3.6296286 C2.93032602,3.45322859 2.55412601,3.45322859 2.392126,3.36682859 C2.22472599,3.27862858 1.61812597,3.23542858 1.49572596,3.41002859 C1.36972596,3.5846286 0.91072594,3.88882861 0.680325931,4.10842862 C0.451725922,4.32802863 0.183525911,4.28482862 0.41032592,4.74382864 C0.638925929,5.20282866 -0.172874103,5.48722867 0.0341259051,5.98762869 C0.241125913,6.48802871 -0.00727409653,7.84342876 0.826125937,8.10622878 C1.66132597,8.36902879 2.348926,8.52202879 2.82772602,8.13142878 C3.31012604,7.73542876 4.03912606,7.73542876 4.26772607,8.17282878 C4.49632608,8.6102288 4.62232609,9.26542882 5.37112612,9.63622884 C6.11992615,10.0088289 6.76792617,11.0798289 6.72652617,11.5568289 C6.68692617,12.0392289 6.74992617,13.632229 7.5167262,14.550229 C8.29072623,15.4682291 9.08272626,17.1314291 9.14212627,16.7354291 C9.20512627,16.3412291 9.20512627,15.9470291 9.37432628,16.2332291 C9.53812628,16.5176291 9.9773263,17.3924291 10.6865263,17.5454292 C11.3975264,17.6984292 11.7521264,17.7416292 12.0203264,18.0062292 C12.2903264,18.2690292 12.5225264,18.4202292 12.8123264,18.5534292 C13.1039264,18.6830292 13.8131265,19.0790292 13.9589265,19.3400292 C14.1065265,19.6028292 14.0435265,19.9520292 13.8959265,20.3462293 C13.7519265,20.7404293 13.5845264,21.1328293 13.7915265,21.5054293 C14.0021265,21.8762293 14.4395265,22.9472294 14.7959265,23.1866294 C15.1505265,23.4296294 15.5015265,23.8220294 15.4187265,24.3674294 C15.3359265,24.9128294 14.9399265,27.2510295 14.9813265,27.7766296 C15.0245265,28.2986296 14.5043265,30.0248296 14.9201265,30.7250297 C15.3359265,31.4234297 16.0487265,31.6430297 16.3601266,31.5530297 C16.6715266,31.4684297 16.4231266,31.4432297 16.2755266,31.1174297 C16.1297265,30.7880297 16.1495265,30.3722297 16.3169266,30.0680296 C16.4861266,29.7620296 16.4861266,29.5874296 16.4015266,29.2382296 C16.3169266,28.8890296 16.3601266,28.6910296 16.5671266,28.4300296 C16.7777266,28.1672296 17.6525266,27.4688295 17.9243266,27.1628295 C18.1925266,26.8568295 19.9061267,24.7580294 20.1347267,24.5834294 C20.3633267,24.4088294 20.8835267,23.9930294 21.0527267,23.3396294 C21.2201267,22.6862294 21.8231268,21.3956293 21.4073268,21.0662293 C20.9897267,20.7368293 19.4471267,20.4938293 19.3841267,20.4506293 Z" id="Path" fill="url(#linearGradient-1)"></path>
            <path d="M23.5529268,2.01142853 C23.6717268,1.77922852 23.9597269,1.1978285 24.1145269,0.879228488 L17.5085266,0.879228488 C17.5877266,1.2302285 17.8739266,2.53342855 17.8199266,3.06082857 C17.7569266,3.6728286 17.9459266,3.45502859 18.1115266,3.6962286 C18.2789266,3.93742861 18.2375266,4.31002862 18.1331266,4.59082864 C18.0269266,4.87522865 17.9657266,5.51062867 18.3023266,6.2540287 C18.6335266,6.99562873 19.0295267,7.93522877 19.3625267,7.98022877 C19.6991267,8.02162877 19.6145267,8.50402879 19.8449267,8.32762878 C20.0735267,8.15122878 20.1131267,7.76242876 20.3039267,7.19182874 C20.4911267,6.62662872 20.4911267,6.2090287 20.9717267,5.92462869 C21.4523268,5.64022868 22.7843268,4.72402864 23.0759268,4.39462863 C23.3693268,4.06522861 23.7023268,3.93562861 23.5979268,3.36862859 C23.4899268,2.79982856 23.3873268,2.34082855 23.5529268,2.01142853 Z" id="Path" fill="url(#linearGradient-2)"></path>
            <path d="M56.0771281,4.59082864 C55.8269281,4.41622863 54.3275281,3.21562858 53.679528,3.36862859 C53.036928,3.52162859 51.888528,3.01762857 51.699528,2.90962857 C51.512328,2.79982856 49.9715279,2.32642855 49.1579279,2.29762854 C48.7529278,2.28322854 47.0519278,1.90342853 46.3427277,1.59922852 C45.6317277,1.2914285 45.0305277,-0.215171555 43.6751276,0.0260284542 C43.5005276,0.0584284555 41.8625276,0.288828465 41.4449276,0.661428479 C41.0309275,1.03402849 40.8401275,1.46782851 40.6115275,1.55602852 C40.3829275,1.64422852 39.7151275,1.59922852 39.7151275,1.92862853 C39.7151275,2.25622854 39.9455275,3.26242858 39.6755275,3.06442857 C39.4037275,2.86822857 39.1319275,2.40922855 39.0095275,2.76022856 C38.8853274,3.11122858 38.6711274,3.30562858 38.5487274,3.17422858 C38.4263274,3.04282857 37.7963274,3.17422858 37.7153274,3.39202859 C37.6307274,3.6116286 36.8189274,4.11202862 36.4661274,4.18042862 C36.1115273,4.24522862 35.9639273,4.41982863 35.7767273,4.50802863 C35.5895273,4.59442864 34.1693273,5.25142866 33.9011273,5.01022865 C33.6293272,4.77082864 33.5465272,4.92382865 33.3791272,4.96702865 C33.3791272,4.96702865 32.8787272,4.87882865 32.5673272,4.48642863 C32.2523272,4.09402862 32.1911272,4.22362862 31.8365272,3.85282861 C31.4837272,3.48202859 31.3991272,3.11122858 31.0463271,3.26422858 C30.6935271,3.41542859 29.1923271,4.96522865 28.607327,5.66542868 C28.025927,6.36562871 26.981927,7.08562873 27.502127,7.58602875 C28.025927,8.08822877 28.294127,8.02342877 28.358927,8.30602878 C28.423727,8.58862879 28.484927,8.89642881 28.567727,9.00622881 C28.650527,9.11782882 29.1491271,9.50842883 29.4011271,8.98462881 C29.6549271,8.45902879 29.6927271,8.08822877 29.9843271,8.17642878 C30.2759271,8.26282878 30.3371271,8.46082879 30.1895271,8.8532288 C30.0437271,9.24922882 29.9411271,9.85942884 29.4407271,9.83602884 C28.9421271,9.81442884 28.400327,9.50842883 28.231127,9.57502883 C28.065527,9.63982884 27.964727,9.79282884 27.773927,9.94582885 C27.586727,10.0988289 27.001727,10.8170289 26.605727,10.9286289 C26.2115269,11.0384289 25.7327269,10.9484289 26.0027269,11.2760289 C26.2727269,11.6036289 26.668727,12.3254289 26.2943269,12.3020289 C25.9199269,12.2804289 25.2935269,12.2156289 25.2521269,12.586429 C25.2107269,12.957229 25.0451269,13.176829 25.1279269,13.437829 C25.2107269,13.700629 25.4825269,14.204629 25.8137269,14.028229 C26.1521269,13.851829 26.796527,13.680829 26.962127,13.284829 C27.129527,12.890629 27.318527,12.4568289 27.734327,12.4784289 C28.150127,12.5000289 29.1527271,13.045429 29.0879271,13.243429 C29.0267271,13.437829 28.819727,13.898629 29.0681271,13.745629 C29.3183271,13.590829 29.5253271,13.416229 29.6711271,13.351429 C29.8169271,13.284829 30.0095271,13.571029 30.0689271,13.680829 C30.1301271,13.792429 30.5495271,14.008429 30.6305271,13.655629 C30.7151271,13.308229 30.7979271,13.571029 31.0463271,13.680829 C31.2983271,13.792429 32.0471272,13.875229 32.1479272,13.963429 C32.2559272,14.051629 32.4845272,14.312629 32.1911272,14.663629 C31.8995272,15.011029 31.5647272,15.1460291 31.0859271,14.883229 C30.6053271,14.620429 30.0833271,15.1028291 29.5469271,14.838229 C29.0015271,14.577229 29.2535271,14.206429 28.607327,13.943629 C27.964727,13.680829 26.503127,14.008429 26.0423269,14.139829 C25.5833269,14.269429 25.5635269,14.314429 25.3763269,14.532229 C25.1891269,14.751829 23.9597269,16.1702291 23.9597269,16.9784291 C23.9597269,17.7848292 24.4169269,19.9736292 25.8965269,19.7540292 C27.377927,19.5344292 28.274327,19.6640292 28.108727,20.0996293 C27.939527,20.5388293 28.025927,20.6486293 28.295927,21.1490293 C28.565927,21.6512293 29.1941271,24.9956294 29.2967271,25.5392295 C29.4047271,26.0864295 29.2157271,26.7830295 29.9033271,26.6750295 C30.5945271,26.5652295 31.3217271,26.3924295 31.6115272,25.7588295 C31.9049272,25.1234295 31.9499272,24.4052294 32.3243272,24.0344294 C32.7005272,23.6618294 33.1577272,23.6618294 33.1973272,23.1380294 C33.2369272,22.6124294 33.0929272,21.3686293 33.3431272,21.0806293 C33.5951272,20.7998293 34.7597273,19.4858292 34.8839273,18.9620292 C35.0099273,18.4382292 35.1755273,18.3068292 34.6967273,18.3068292 C34.2179273,18.3068292 33.4043272,18.2438292 33.1721272,17.8064292 C32.9435272,17.3744291 32.3999272,16.5446291 32.3999272,16.3484291 C32.3999272,16.1540291 32.7347272,16.1738291 32.8985272,16.5878291 C33.0677272,17.0018291 33.6473272,18.2510292 34.3151273,17.9846292 C34.9829273,17.7218292 35.9225273,17.4176291 35.9423273,17.0018291 C35.9621273,16.5878291 35.6507273,16.1072291 35.3159273,16.1306291 C34.9793273,16.1540291 34.6265273,15.9110291 34.6265273,15.6716291 C34.6265273,15.4322291 34.6877273,15.5204291 35.0855273,15.6716291 C35.4833273,15.8246291 35.6057273,16.0856291 36.2123273,16.1306291 C36.8171274,16.1738291 37.5047274,16.7642291 37.8359274,17.0270291 C38.1707274,17.2898291 38.7521274,19.0826292 38.8997274,19.2554292 C39.0437275,19.4318292 39.2165275,19.4318292 39.3605275,19.0808292 C39.5063275,18.7298292 40.1309275,17.6174292 40.4873275,17.3096291 C40.8401275,17.0036291 40.8617275,16.5896291 41.0669275,16.8524291 C41.2757275,17.1152291 42.1721276,17.7686292 42.2351276,18.1628292 C42.2981276,18.5570292 42.1937276,19.4084292 42.3809276,19.1456292 C42.5681276,18.8828292 42.7157276,18.3392292 42.8777276,18.5804292 C43.0469276,18.8216292 43.0469276,19.1924292 43.4411276,18.9080292 C43.8389276,18.6272292 44.5265277,18.5156292 44.1521277,17.9036292 C43.7777276,17.2916291 44.0279277,16.9208291 44.2601277,16.8974291 C44.4887277,16.8740291 46.0529277,16.5914291 46.0943277,15.7382291 C46.1357277,14.886829 45.5507277,14.427829 45.8279277,13.990429 C46.0943277,13.553029 46.4921278,13.160629 46.5767278,13.421629 C46.6595278,13.684429 46.3679277,14.535829 46.7423278,14.404429 C47.1185278,14.274829 47.5559278,14.274829 47.5559278,14.010229 C47.5559278,13.745629 47.4713278,13.090429 47.6405278,12.917629 C47.8079278,12.743029 49.0355279,11.5874289 49.1813279,11.1284289 C49.3271279,10.6676289 49.5989279,10.2752289 49.3685279,9.92782885 C49.1381279,9.57862883 48.7439278,9.68482884 49.0553279,9.25102882 C49.3685279,8.8136288 49.8905279,8.40862879 50.2865279,8.37622879 C51.551928,8.26462878 51.1955279,9.83062884 51.2171279,10.1798289 C51.2405279,10.5290289 51.2405279,11.4038289 51.4259279,10.9664289 C51.613128,10.5308289 51.830928,9.99262885 52.207128,9.62182884 C52.583328,9.25282882 52.790328,9.00982881 52.813728,8.6840288 C52.835328,8.35642879 52.851528,8.24662878 53.209728,8.07202877 C53.564328,7.89562877 55.1267281,7.28362874 55.2725281,6.87142873 C55.4183281,6.45742871 55.0853281,6.08302869 55.4597269,6.1082287 C55.8341281,6.1280287 56.1887281,6.54202871 56.3777281,6.3242287 C56.5649282,6.1082287 56.9825282,5.71402868 56.9609282,5.49442867 C56.9357282,5.26762866 56.3309281,4.76542864 56.0771281,4.59082864 Z" id="Path" fill="url(#linearGradient-3)"></path>
            <path d="M49.3469279,11.9294289 C49.2209279,12.2156289 49.1597279,12.2606289 48.9725278,12.851029 C48.7817278,13.437829 48.8447278,13.284829 48.6557278,13.655629 C48.4685278,14.028229 48.1589278,14.069629 47.8457278,14.312629 C47.5289278,14.553829 47.4461278,15.0326291 47.4461278,15.0326291 C47.1761278,15.4034291 48.5513278,14.507029 49.0301279,14.224429 C49.5107279,13.940029 49.3865279,13.612429 49.4279279,13.153429 C49.4693279,12.692629 49.5989279,12.627829 49.8023279,12.4316289 C50.0093279,12.2354289 49.8437279,11.8412289 49.7447279,11.5586289 C49.6367279,11.2760289 49.4693279,11.6486289 49.3469279,11.9294289 Z" id="Path" fill="url(#linearGradient-4)"></path>
            <path d="M45.0719277,21.8510293 C45.2177277,21.7394293 45.1115277,21.5018293 45.3401277,21.5432293 C45.5705277,21.5864293 45.7775277,21.7214293 46.0529277,21.5684293 C46.3211277,21.4136293 46.5515278,21.4784293 46.5101278,21.2174293 C46.4705278,20.9564293 46.5101278,20.6072293 46.4489277,20.3894293 C46.3859277,20.1698293 46.0115277,20.1032293 45.7397277,20.3462293 C45.4679277,20.5892293 45.0953277,20.9600293 45.0953277,20.8268293 C45.0953277,20.6972293 45.2591277,20.3462293 45.1763277,20.1284293 C45.0953277,19.9106292 45.2177277,19.7144292 44.8019277,19.8872292 C44.3843277,20.0636293 44.1557277,20.0186292 44.0099277,20.2598293 C43.8659276,20.5028293 43.6967276,20.9150293 43.4483276,20.6540293 C43.1999276,20.3930293 42.4673276,19.8476292 42.4673276,19.8476292 C42.4079276,19.7810292 41.5745276,19.1024292 41.8661276,19.5632292 C42.1559276,20.0222292 42.5951276,20.8088293 42.8039276,21.0914293 C43.0091276,21.3758293 43.2395276,21.7052293 43.4915276,21.5522293 C43.7417276,21.3974293 43.7831276,21.3560293 44.1179277,21.5522293 C44.4437277,21.7412293 44.9261277,21.9608293 45.0719277,21.8510293 Z" id="Path" fill="url(#linearGradient-5)"></path>
            <path d="M50.1803279,21.2372293 C49.7807279,21.0626293 49.9481279,20.9096293 49.4675279,20.8250293 C48.9869279,20.7404293 48.5945278,20.8250293 48.4649278,20.7386293 C48.3389278,20.6504293 47.7161278,20.4326293 47.7989278,20.7386293 C47.8835278,21.0464293 48.4451278,21.1310293 48.5909278,21.2174293 C48.7367278,21.3056293 48.3821278,21.5036293 48.6503278,21.6548293 C48.9203278,21.8060293 49.1111279,22.0922293 49.4639279,22.0040293 C49.8185279,21.9140293 49.9445279,22.1138293 50.2325279,22.1570293 C50.5259279,22.1984293 50.8175279,22.1138293 50.6969279,21.9788293 C50.5709279,21.8510293 50.4899279,21.6728293 50.5097279,21.5216293 C50.5313279,21.3686293 50.5745279,21.4136293 50.1803279,21.2372293 Z" id="Path" fill="url(#linearGradient-6)"></path>
            <path d="M49.9715279,23.1830294 C49.8257279,22.7456294 49.4711279,21.9410293 49.3901279,22.3316293 C49.3055279,22.7240294 48.7439278,23.0066294 48.5315278,22.9850294 C48.3407278,22.9634294 48.4487278,22.7672294 48.4487278,22.5890294 C48.4487278,22.4144293 48.3389278,22.2416293 47.8637278,22.3730293 C47.3813278,22.5026293 47.2823278,22.9616294 47.1527278,22.9202294 C47.0303278,22.8770294 46.6937278,22.7888294 46.4885278,23.0300294 C46.2797277,23.2712294 46.0889277,23.7302294 45.8423277,23.8184294 C45.5903277,23.9066294 44.7551277,24.0128294 44.7551277,24.3656294 C44.7551277,24.7148294 44.9657277,25.2386295 44.9441277,25.5230295 C44.9225277,25.8074295 44.5427277,26.4608295 45.0485277,26.6606295 C45.3401277,26.7740295 45.5471277,26.7902295 45.8855277,26.6174295 C46.2185277,26.4428295 47.6549278,25.9838295 47.8457278,26.1350295 C48.0329278,26.2880295 48.3353278,26.6462295 48.4703278,26.7236295 C48.7349278,26.8820295 48.8069278,27.2474295 49.1615279,27.3356295 C49.5107279,27.4238295 49.7861279,27.4652295 49.9301279,27.4652295 C50.0777279,27.4652295 50.5961279,27.2906295 50.7221279,26.9846295 C50.8481279,26.6768295 51.0767279,25.9568295 51.1811279,25.6076295 C51.2909279,25.2584295 51.3881279,24.8660294 51.0767279,24.5582294 C50.7653279,24.2540294 50.1173279,23.6204294 49.9715279,23.1830294 Z" id="Path" fill="url(#linearGradient-7)"></path>
        </g>
    </g>
</svg>