<?xml version="1.0" encoding="UTF-8"?>
<svg width="70px" height="70px" viewBox="0 0 70 70" version="1.1" xmlns="http://www.w3.org/2000/svg" xmlns:xlink="http://www.w3.org/1999/xlink">
    <!-- Generator: Sketch 55.2 (78181) - https://sketchapp.com -->
    <title>Axis types</title>
    <desc>Created with Sketch.</desc>
    <defs>
        <linearGradient x1="72.0139899%" y1="0%" x2="-14.36559%" y2="116.998625%" id="linearGradient-1">
            <stop stop-color="#0BD1C3" offset="0%"></stop>
            <stop stop-color="#0653C7" offset="100%"></stop>
        </linearGradient>
        <linearGradient x1="72.8282108%" y1="0%" x2="-16.7462489%" y2="116.998625%" id="linearGradient-2">
            <stop stop-color="#0BD1C3" offset="0%"></stop>
            <stop stop-color="#0653C7" offset="100%"></stop>
        </linearGradient>
        <linearGradient x1="72.9748999%" y1="2.20206771%" x2="-17.1751459%" y2="114.047915%" id="linearGradient-3">
            <stop stop-color="#0BD1C3" offset="0%"></stop>
            <stop stop-color="#0653C7" offset="100%"></stop>
        </linearGradient>
    </defs>
    <g id="Axis-types" stroke="none" stroke-width="1" fill="none" fill-rule="evenodd">
        <g id="Group" transform="translate(10.573607, 5.000000)">
            <path d="M49.0832476,43.6568542 L14.0832476,43.6568542 C13.5309629,43.6568542 13.0309629,43.4329966 12.669034,43.0710678 C12.3071052,42.709139 12.0832476,42.209139 12.0832476,41.6568542 L12.0832476,5.65685425 L8.42639335,5.65685425 L14.0832476,-1.21236354e-13 L19.7401019,5.65685425 L16.0832476,5.65685425 L16.0832476,39.6568542 L49.0832476,39.6568542 L49.0832476,36 L54.7401019,41.6568542 L49.0832476,47.3137085 L49.0832476,43.6568542 Z" id="Combined-Shape" fill="url(#linearGradient-1)"></path>
            <path d="M0,9.07961831 L0,8.07961831 L11,8.07961831 L11,9.07961831 L0,9.07961831 Z M0,26 L0,25 L11,25 L11,26 L0,26 Z M5,14.5 L5,13.5 L11,13.5 L11,14.5 L5,14.5 Z M5,31.4203817 L5,30.4203817 L11,30.4203817 L11,31.4203817 L5,31.4203817 Z M5,20.5 L5,19.5 L11,19.5 L11,20.5 L5,20.5 Z M5,37.4203817 L5,36.4203817 L11,36.4203817 L11,37.4203817 L5,37.4203817 Z M0,43.4203817 L0,42.4203817 L11,42.4203817 L11,43.4203817 L0,43.4203817 Z M13.4263934,56 L12.4263934,56 L12.4263934,45 L13.4263934,45 L13.4263934,56 Z M30.346775,56 L29.346775,56 L29.346775,45 L30.346775,45 L30.346775,56 Z M18.846775,51 L17.846775,51 L17.846775,45 L18.846775,45 L18.846775,51 Z M35.7671567,51 L34.7671567,51 L34.7671567,45 L35.7671567,45 L35.7671567,51 Z M24.846775,51 L23.846775,51 L23.846775,45 L24.846775,45 L24.846775,51 Z M41.7671567,51 L40.7671567,51 L40.7671567,45 L41.7671567,45 L41.7671567,51 Z M47.7671567,56 L46.7671567,56 L46.7671567,45 L47.7671567,45 L47.7671567,56 Z" id="Combined-Shape" fill="url(#linearGradient-2)"></path>
            <path d="M49.6304346,30.3276427 C49.9901696,31.0738881 50.8867439,31.3872166 51.6329893,31.0274816 C52.3792347,30.6677465 52.6925632,29.7711722 52.3328282,29.0249268 L39.5931131,2.5972721 C39.1191492,1.61406684 37.7872385,1.45012996 37.0889995,2.2890558 L22.7306615,19.5404258 C22.2007033,20.1771642 22.2872657,21.1229587 22.9240041,21.6529169 C23.5607425,22.1828751 24.506537,22.0963126 25.0364952,21.4595742 L37.9032229,6.00035602 L49.6304346,30.3276427 Z" id="Path-3" fill="url(#linearGradient-3)"></path>
        </g>
    </g>
</svg>