<?xml version="1.0" encoding="UTF-8"?>
<svg width="70px" height="70px" viewBox="0 0 70 70" version="1.1" xmlns="http://www.w3.org/2000/svg" xmlns:xlink="http://www.w3.org/1999/xlink">
    <!-- Generator: Sketch 55.2 (78181) - https://sketchapp.com -->
    <title>Cartesian</title>
    <desc>Created with Sketch.</desc>
    <defs>
        <linearGradient x1="72.9748999%" y1="0%" x2="-17.1751459%" y2="116.998625%" id="linearGradient-1">
            <stop stop-color="#0BD1C3" offset="0%"></stop>
            <stop stop-color="#0653C7" offset="100%"></stop>
        </linearGradient>
        <linearGradient x1="72.9748999%" y1="7.5633294%" x2="-17.1751459%" y2="106.863971%" id="linearGradient-2">
            <stop stop-color="#0BD1C3" offset="0%"></stop>
            <stop stop-color="#0653C7" offset="100%"></stop>
        </linearGradient>
    </defs>
    <g id="Cartesian" stroke="none" stroke-width="1" fill="none" fill-rule="evenodd">
        <g id="Group" transform="translate(5.000000, 5.000000)">
            <path d="M54.6568542,56.6568542 L5.65685425,56.6568542 C5.1045695,56.6568542 4.6045695,56.4329966 4.24264069,56.0710678 C3.88071187,55.709139 3.65685425,55.209139 3.65685425,54.6568542 L3.65685425,5.65685425 L-2.57571742e-14,5.65685425 L5.65685425,-1.50990331e-14 L11.3137085,5.65685425 L7.65685425,5.65685425 L7.65685425,52.6568542 L54.6568542,52.6568542 L54.6568542,49 L60.3137085,54.6568542 L54.6568542,60.3137085 L54.6568542,56.6568542 Z" id="Combined-Shape" fill="url(#linearGradient-1)"></path>
            <path d="M13.3793029,41.7926078 L20.2239589,25.7778959 C20.3324849,25.5239733 20.6263076,25.4061061 20.8802303,25.5146321 C20.9898961,25.561503 21.0791965,25.6460296 21.1320159,25.7529576 L29.8076209,43.3159266 C30.9083131,45.5441771 33.6069543,46.4582438 35.8352048,45.3575517 C37.5311321,44.519812 38.5221283,42.7109264 38.3152238,40.8307221 L34.3568103,4.85941777 C34.2661942,4.0359615 34.8602785,3.29495942 35.6837348,3.20434329 C36.3402455,3.13209846 36.9667583,3.49777024 37.2267267,4.10492928 L47.588555,28.3050895 C48.5667841,30.5897538 51.2118819,31.6488289 53.4965463,30.6705999 C54.5490466,30.2199488 55.3901968,29.3850623 55.8487021,28.3359598 L59.901957,19.0617372 C60.2337164,18.3026409 59.8872914,17.4183276 59.1281951,17.0865682 C58.3690988,16.7548088 57.4847856,17.1012337 57.1530261,17.86033 L53.0997713,27.1345526 C52.9469362,27.4842535 52.6665528,27.762549 52.3157193,27.912766 C51.5541645,28.2388423 50.6724653,27.8858173 50.3463889,27.1242625 L39.9845606,2.92410234 C39.2046553,1.10262522 37.325117,0.00560986288 35.3555847,0.222344372 C32.885216,0.494192759 31.102963,2.71719901 31.3748114,5.1875678 L35.3332249,41.1588722 C35.402193,41.7856069 35.071861,42.3885688 34.5065519,42.6678154 C33.7638017,43.0347127 32.8642546,42.7300238 32.4973573,41.9872737 L23.8217522,24.4243046 C23.4520166,23.6758088 22.8269136,23.084123 22.0592529,22.7560263 C20.2817943,21.9963441 18.2250354,22.8214148 17.4653531,24.5988733 L10.6206971,40.6135852 C10.295119,41.3753532 10.6487208,42.2568213 11.4104887,42.5823994 C12.1722566,42.9079775 13.0537248,42.5543758 13.3793029,41.7926078 Z" id="Path-7" fill="url(#linearGradient-2)"></path>
        </g>
    </g>
</svg>