<?xml version="1.0" encoding="UTF-8"?>
<svg width="70px" height="70px" viewBox="0 0 70 70" version="1.1" xmlns="http://www.w3.org/2000/svg" xmlns:xlink="http://www.w3.org/1999/xlink">
    <!-- Generator: Sketch 57.1 (83088) - https://sketch.com -->
    <title>Circle Gauge</title>
    <desc>Created with Sketch.</desc>
    <defs>
        <linearGradient x1="50%" y1="0%" x2="50%" y2="100%" id="linearGradient-1">
            <stop stop-color="#0CC9C4" offset="0%"></stop>
            <stop stop-color="#0E77C9" offset="100%"></stop>
        </linearGradient>
    </defs>
    <g id="Circle-Gauge" stroke="none" stroke-width="1" fill="none" fill-rule="evenodd">
        <path d="M35,4 C52.1208272,4 66,17.8791728 66,35 C66,46.5965891 59.6324168,56.7059495 50.2029005,62.0224309 L48.8417132,58.1868448 C50.386403,57.2627342 51.8310411,56.1886434 53.1555112,54.9846887 L50.4644661,52.2928932 L53.2928932,49.4644661 L55.9103886,52.0821533 C59.3214297,47.9116449 61.5094605,42.7019194 61.9270157,37.000442 L58,37 L58,33 L61.9270659,33.000243 C61.5280095,27.5494686 59.510758,22.5481245 56.3536768,18.4745761 L54.2928932,20.5355339 L51.4644661,17.7071068 L53.6729408,15.4981175 C49.2739296,11.2849503 43.4520803,8.54551239 37.0005835,8.07299463 L37,12 L33,12 L33.0004168,8.07292139 C26.7981971,8.52695184 21.1778578,11.076101 16.8441317,15.0156359 L19.5355339,17.7071068 L16.7071068,20.5355339 L14.0893439,17.9181738 C10.6783288,22.088783 8.49036546,27.2986182 8.07293757,33.0001958 L12,33 L12,37 L8.0730224,37.0009627 C8.49069903,42.7025955 10.6789497,47.9124278 14.0902557,52.0829409 L16.7071068,49.4644661 L19.5355339,52.2928932 L16.8437449,54.9840124 C18.3224647,56.3282814 19.9509871,57.5106705 21.7013145,58.5031821 L20.1487508,62.2176955 C10.5262374,56.9560558 4,46.7401701 4,35 C4,17.8791728 17.8791728,4 35,4 Z M35.2403918,16 L35.7281732,32.0889832 C37.0331541,32.4143625 38,33.5942717 38,35 C38,36.3421259 37.1186649,37.478405 35.9031704,37.8616616 L35.9968453,40.9637088 L33.9689726,40.9637088 L34.0408005,37.8433833 C32.8543447,37.4432876 32,36.3214152 32,35 C32,33.6289098 32.9197855,32.472647 34.1759854,32.114583 L34.5547662,16 L35.2403918,16 Z" id="Combined-Shape" fill="url(#linearGradient-1)" fill-rule="nonzero"></path>
    </g>
</svg>