<?xml version="1.0" encoding="UTF-8"?>
<svg width="70px" height="70px" viewBox="0 0 70 70" version="1.1" xmlns="http://www.w3.org/2000/svg" xmlns:xlink="http://www.w3.org/1999/xlink">
    <!-- Generator: Sketch 55.2 (78181) - https://sketchapp.com -->
    <title>Other Features</title>
    <desc>Created with Sketch.</desc>
    <defs>
        <linearGradient x1="72.9748999%" y1="0%" x2="-17.1751459%" y2="116.998625%" id="linearGradient-1">
            <stop stop-color="#0BD1C3" offset="0%"></stop>
            <stop stop-color="#0653C7" offset="100%"></stop>
        </linearGradient>
        <linearGradient x1="72.9748999%" y1="23.2988166%" x2="-17.1751459%" y2="85.7788514%" id="linearGradient-2">
            <stop stop-color="#0BD1C3" offset="0%"></stop>
            <stop stop-color="#0653C7" offset="100%"></stop>
        </linearGradient>
    </defs>
    <g id="Other-Features" stroke="none" stroke-width="1" fill="none" fill-rule="evenodd">
        <g id="Group" transform="translate(5.000000, 5.000000)">
            <path d="M54.6568542,56.6568542 L5.65685425,56.6568542 C5.1045695,56.6568542 4.6045695,56.4329966 4.24264069,56.0710678 C3.88071187,55.709139 3.65685425,55.209139 3.65685425,54.6568542 L3.65685425,5.65685425 L-2.57571742e-14,5.65685425 L5.65685425,-1.50990331e-14 L11.3137085,5.65685425 L7.65685425,5.65685425 L7.65685425,52.6568542 L54.6568542,52.6568542 L54.6568542,49 L60.3137085,54.6568542 L54.6568542,60.3137085 L54.6568542,56.6568542 Z" id="Combined-Shape-Copy-3" fill="url(#linearGradient-1)"></path>
            <path d="M52.863399,21.6248225 C52.0145597,20.656917 51.5,19.3885494 51.5,18 C51.5,14.9624339 53.9624339,12.5 57,12.5 C60.0375661,12.5 62.5,14.9624339 62.5,18 C62.5,21.0375661 60.0375661,23.5 57,23.5 C56.4387129,23.5 55.8970633,23.4159218 55.3869587,23.259673 L47.3806311,37.6613294 C48.6705589,38.6678569 49.5,40.2370653 49.5,42 C49.5,45.0375661 47.0375661,47.5 44,47.5 C40.9624339,47.5 38.5,45.0375661 38.5,42 C38.5,40.295311 39.2755386,38.7717587 40.4930361,37.7629229 L30.1795399,20.3732179 C29.7995582,20.4562494 29.4048883,20.5 29,20.5 C28.3466439,20.5 27.719896,20.3860766 27.1385372,20.1770105 L19.5339452,31.785425 C20.7359078,32.7943387 21.5,34.3079377 21.5,36 C21.5,39.0375661 19.0375661,41.5 16,41.5 C12.9624339,41.5 10.5,39.0375661 10.5,36 C10.5,32.9624339 12.9624339,30.5 16,30.5 C16.2564323,30.5 16.5087657,30.5175492 16.7558648,30.5515123 L24.6982615,18.4274389 C23.9482865,17.4873942 23.5,16.2960485 23.5,15 C23.5,11.9624339 25.9624339,9.5 29,9.5 C32.0375661,9.5 34.5,11.9624339 34.5,15 C34.5,16.5512264 33.8578101,17.9524614 32.8247864,18.9523486 L43.2611385,36.5492022 C43.5028065,36.5167538 43.7494467,36.5 44,36.5 C44.1949317,36.5 44.3874948,36.5101409 44.5771906,36.529924 L52.863399,21.6248225 Z" id="Combined-Shape" fill="url(#linearGradient-2)"></path>
        </g>
    </g>
</svg>