<?xml version="1.0" encoding="UTF-8"?>
<svg width="70px" height="70px" viewBox="0 0 70 70" version="1.1" xmlns="http://www.w3.org/2000/svg" xmlns:xlink="http://www.w3.org/1999/xlink">
    <!-- Generator: Sketch 55.2 (78181) - https://sketchapp.com -->
    <title>User Interaction</title>
    <desc>Created with Sketch.</desc>
    <defs>
        <linearGradient x1="72.9748999%" y1="0%" x2="-17.1751459%" y2="116.998625%" id="linearGradient-1">
            <stop stop-color="#0BD1C3" offset="0%"></stop>
            <stop stop-color="#0653C7" offset="100%"></stop>
        </linearGradient>
        <linearGradient x1="72.9748999%" y1="41.8591367%" x2="-17.1751459%" y2="60.9085329%" id="linearGradient-2">
            <stop stop-color="#0BD1C3" offset="0%"></stop>
            <stop stop-color="#0653C7" offset="100%"></stop>
        </linearGradient>
        <linearGradient x1="62.3553906%" y1="0%" x2="13.8746993%" y2="116.998625%" id="linearGradient-3">
            <stop stop-color="#0BD1C3" offset="0%"></stop>
            <stop stop-color="#0653C7" offset="100%"></stop>
        </linearGradient>
    </defs>
    <g id="User-Interaction" stroke="none" stroke-width="1" fill="none" fill-rule="evenodd">
        <path d="M59.6568542,61.6568542 L10.6568542,61.6568542 C10.1045695,61.6568542 9.6045695,61.4329966 9.24264069,61.0710678 C8.88071187,60.709139 8.65685425,60.209139 8.65685425,59.6568542 L8.65685425,10.6568542 L5,10.6568542 L10.6568542,5 L16.3137085,10.6568542 L12.6568542,10.6568542 L12.6568542,57.6568542 L59.6568542,57.6568542 L59.6568542,54 L65.3137085,59.6568542 L59.6568542,65.3137085 L59.6568542,61.6568542 Z" id="Combined-Shape-Copy-2" fill="url(#linearGradient-1)"></path>
        <path d="M31,12.6781795 L37.6631156,20.3507672 L31,12.6781795 Z M54.8139518,13.4075018 L48.4097378,20.3507672 L54.8139518,13.4075018 Z" id="Combined-Shape" stroke="#0AB2C4"></path>
        <path d="M32.2413321,13.9463514 L37.6631156,20.3507672 L32.2413321,13.9463514 C31.0554846,15.2103666 29.3699567,16 27.5,16 C23.9101491,16 21,13.0898509 21,9.5 C21,5.91014913 23.9101491,3 27.5,3 C31.0898509,3 34,5.91014913 34,9.5 C34,11.2198942 33.3320163,12.7837724 32.2413321,13.9463514 Z M57.5,16 C53.9101491,16 51,13.0898509 51,9.5 C51,5.91014913 53.9101491,3 57.5,3 C61.0898509,3 64,5.91014913 64,9.5 C64,13.0898509 61.0898509,16 57.5,16 Z M57.5,13 C59.4329966,13 61,11.4329966 61,9.5 C61,7.56700338 59.4329966,6 57.5,6 C55.5670034,6 54,7.56700338 54,9.5 C54,11.4329966 55.5670034,13 57.5,13 Z M27.5,13 C29.4329966,13 31,11.4329966 31,9.5 C31,7.56700338 29.4329966,6 27.5,6 C25.5670034,6 24,7.56700338 24,9.5 C24,11.4329966 25.5670034,13 27.5,13 Z" id="Combined-Shape" fill="url(#linearGradient-2)"></path>
        <path d="M57,42.2596774 C57,40.9967742 56.0358308,39.9695161 54.8511844,39.9695161 C54.3925345,39.9695161 53.971667,40.1301613 53.6225383,40.3924194 C53.4207132,39.0574194 52.3379359,38.0340323 51.0322901,38.0340323 C50.3426413,38.0340323 49.7161226,38.3219355 49.246951,38.788871 C48.8992571,37.5158065 47.7992625,36.5824194 46.4983993,36.5824194 C45.765229,36.5824194 45.0971018,36.8814516 44.5901478,37.3677419 L44.5901478,30.4193548 C44.5901478,29.0853226 43.5724136,28 42.3217676,28 C41.0706433,28 40.0529091,29.0853226 40.0533874,30.3966129 L39.5330421,41.6843548 C38.4985689,39.9240323 37.0623585,39.1919355 35.3654973,39.6104839 C35.2397153,39.6414516 35.1311506,39.7227419 35.0661075,39.8359677 C35,39.9491935 34.9828905,40.0841935 35.0173251,40.2104839 L37.6970076,49.9677419 C37.7123119,50.023871 37.7381378,50.0766129 37.7716159,50.1235484 L40.7693404,54.2737097 L40.7693404,57.516129 C40.7693404,57.7837097 40.9836002,58 41.2475989,58 L53.1806274,58 C53.4446261,58 53.6588859,57.7837097 53.6588859,57.516129 L53.6588859,54.7464516 C55.0530095,51.8074194 56.678132,48.0124194 56.9923479,44.5580645 L56.998087,44.4951613 C56.9990435,44.4874194 56.9952174,44.4806452 56.9956957,44.4729032 C56.9961739,44.4656452 57,44.4593548 57,44.4516129 L57,42.2596774 Z" id="Fill-1" fill="url(#linearGradient-3)"></path>
        <path d="M36,35.7467638 C33.5637479,33.8239047 32,30.8445688 32,27.5 C32,21.7010101 36.7010101,17 42.5,17 C48.2989899,17 53,21.7010101 53,27.5 C53,30.8445688 51.4362521,33.8239047 49,35.7467638 L49,31.2441744 C49.6360558,30.1423418 50,28.8636728 50,27.5 C50,23.3578644 46.6421356,20 42.5,20 C38.3578644,20 35,23.3578644 35,27.5 C35,28.8636728 35.3639442,30.1423418 36,31.2441744 L36,35.7467638 Z" id="Combined-Shape" fill="#099BC5" fill-rule="nonzero"></path>
    </g>
</svg>