<svg width="250" height="250" viewBox="0 0 250 250" fill="none" xmlns="http://www.w3.org/2000/svg">
<path fill-rule="evenodd" clip-rule="evenodd" d="M140.622 20.8334V121.132L182.289 79.4655V20.8334H140.622ZM124.997 67.7084V121.132L120.421 116.556L109.372 105.507L98.3239 116.556L83.3307 131.549V67.7084H124.997ZM109.372 149.701L83.3307 175.743V234.375H124.997V165.326L121.761 162.09L109.372 149.701ZM67.7057 109.375V147.174L26.0391 188.84V109.375H67.7057ZM67.7057 191.368L26.0391 233.035V234.375H67.7057V191.368ZM143.858 162.09L140.622 165.326V234.375H182.289V123.66L143.858 162.09ZM199.216 57.2917C193.463 57.2917 188.799 61.9554 188.799 67.7084C188.799 73.4613 193.463 78.125 199.216 78.125H210.935V88.5417C210.935 94.2947 215.599 98.9584 221.352 98.9584C227.105 98.9584 231.768 94.2947 231.768 88.5417V67.7084C231.768 61.9554 227.105 57.2917 221.352 57.2917H199.216Z" fill="white"/>
</svg>
