<svg width="17" height="21" viewBox="0 0 17 21" fill="none" xmlns="http://www.w3.org/2000/svg">
<path d="M16.3904 7.07455C16.2967 7.13228 14.2369 8.33151 14.2603 10.8264C14.2862 13.8105 16.8763 14.8042 16.906 14.8155C16.8828 14.8865 16.4919 16.2308 15.5408 17.6192C14.7187 18.8219 13.8672 20.0179 12.5232 20.0429C11.2028 20.067 10.7773 19.2594 9.26887 19.2594C7.75954 19.2594 7.28712 20.0179 6.03848 20.067C4.74126 20.1161 3.75363 18.7682 2.92554 17.5721C1.23269 15.1241 -0.0616202 10.654 1.67634 7.63734C2.53916 6.13915 4.08135 5.19 5.75466 5.16548C7.02902 5.1414 8.23084 6.02218 9.01034 6.02218C9.7787 6.02218 11.1558 4.99543 12.779 5.11552C13.4152 5.16266 15.2212 5.35254 16.3904 7.07455ZM11.7774 3.49954C12.4668 2.66637 12.9306 1.50604 12.8029 0.351929C11.8107 0.391277 10.6107 1.01284 9.89902 1.84549C9.26172 2.58308 8.70202 3.76442 8.85398 4.89497C9.9599 4.98042 11.0886 4.33323 11.7774 3.49954Z" fill="#1D1D1F"/>
</svg>
