<svg width="31" height="32" viewBox="0 0 31 32" fill="none" xmlns="http://www.w3.org/2000/svg">
<g clip-path="url(#clip0_39011_970)">
<path d="M30.9889 16.2994C30.9889 14.9884 30.8835 14.0317 30.6552 13.0396H15.8125V18.9569H24.5248C24.3492 20.4274 23.4007 22.642 21.2928 24.1301L21.2633 24.3282L25.9563 27.9952L26.2814 28.0279C29.2675 25.2463 30.9889 21.1537 30.9889 16.2994Z" fill="#4285F4"/>
<path d="M15.8101 31.8901C20.0784 31.8901 23.6617 30.4727 26.279 28.0279L21.2904 24.1301C19.9555 25.0691 18.1638 25.7246 15.8101 25.7246C11.6295 25.7246 8.08137 22.9432 6.81655 19.0986L6.63115 19.1145L1.75132 22.9236L1.6875 23.1025C4.28714 28.3112 9.62701 31.8901 15.8101 31.8901Z" fill="#34A853"/>
<path d="M6.81528 19.0986C6.48154 18.1065 6.2884 17.0434 6.2884 15.945C6.2884 14.8465 6.48154 13.7835 6.79772 12.7914L6.78888 12.5801L1.84789 8.70984L1.68623 8.7874C0.614793 10.9489 0 13.3761 0 15.945C0 18.5139 0.614793 20.941 1.68623 23.1025L6.81528 19.0986Z" fill="#FBBC05"/>
<path d="M15.8101 6.16537C18.7786 6.16537 20.781 7.45869 21.9228 8.53948L26.3843 4.14571C23.6442 1.57679 20.0784 0 15.8101 0C9.62701 0 4.28714 3.57875 1.6875 8.78742L6.79899 12.7915C8.08137 8.94693 11.6295 6.16537 15.8101 6.16537Z" fill="#EB4335"/>
</g>
<defs>
<clipPath id="clip0_39011_970">
<rect width="31" height="32" fill="white"/>
</clipPath>
</defs>
</svg>
