<svg width="32" height="9" viewBox="0 0 32 9" fill="none" xmlns="http://www.w3.org/2000/svg">
<g clip-path="url(#clip0_39011_1074)">
<path fill-rule="evenodd" clip-rule="evenodd" d="M16.7645 3.55627C17.307 3.55627 17.7507 3.75942 17.8985 4.11427C17.948 4.2665 18.096 4.31742 18.293 4.31742H19.082C19.1805 4.31742 19.3285 4.21585 19.3285 4.01322C19.3285 3.10036 18.293 2.28856 16.7645 2.28856C15.187 2.28856 14.151 3.0497 14.151 4.2665C14.151 5.23027 14.891 5.78802 15.7785 6.04156C16.1728 6.14313 16.863 6.2951 17.2085 6.39642C17.5535 6.49799 17.8493 6.59956 17.8493 6.90376C17.8493 7.4111 17.3563 7.61399 16.8143 7.61399C16.2713 7.61399 15.7292 7.36019 15.5813 6.95442C15.4823 6.75127 15.3345 6.70087 15.0883 6.70087H14.299C14.151 6.70087 14.0033 6.80116 14.0033 7.0043V7.10459C14.0033 8.01745 15.1867 8.9303 16.814 8.9303C17.948 8.9303 19.5257 8.47336 19.5257 6.90145C19.5257 5.98859 18.934 5.32902 17.9482 5.07573C17.6025 4.97416 16.6658 4.72087 16.4683 4.66945C16.1233 4.61879 15.7782 4.4663 15.7782 4.16236C15.7782 3.70567 16.2222 3.5537 16.7645 3.5537V3.55627ZM22.1882 8.83079C20.9557 8.83079 20.2157 7.86727 20.2157 6.80245V3.7085H19.8215C19.674 3.7085 19.5257 3.55679 19.5257 3.35364V2.84707C19.5257 2.64342 19.6737 2.49144 19.8215 2.49144H20.216V0.614302C20.216 0.308302 20.4135 0.105159 20.6597 0.105159H21.3498C21.6448 0.105159 21.8423 0.358445 21.8423 0.61173V2.48887H22.9272C23.1248 2.48887 23.2722 2.64059 23.2722 2.84373V3.35107C23.2722 3.55422 23.1248 3.70593 22.9272 3.70593H21.8423V6.54684C21.8423 7.1555 22.1873 7.51062 22.7798 7.51062H22.8773C23.0748 7.51062 23.2222 7.66233 23.2222 7.91587V8.47387C23.2222 8.67702 23.0748 8.82873 22.8773 8.82873H22.1873L22.1882 8.83079ZM25.2945 0.615073C25.2945 0.36153 25.097 0.10773 24.8013 0.10773H24.1112C23.8155 0.10773 23.618 0.35973 23.618 0.614302V8.32344C23.618 8.62687 23.8155 8.83002 24.1112 8.83002H24.8013C25.0972 8.83002 25.2945 8.62687 25.2945 8.32344V0.614559V0.615073ZM10.6995 8.93236C8.777 8.93236 7.544 7.36019 7.544 5.58513C7.544 3.86407 8.6735 2.29447 10.639 2.28856H10.6503C12.8203 2.28856 13.7577 3.91113 13.7577 5.58513C13.7577 5.93999 13.6103 6.14313 13.2653 6.14313H9.22175C9.27075 6.85285 9.8625 7.51242 10.7008 7.51242C11.2418 7.51242 11.6358 7.30927 11.9333 6.90376C12.0308 6.80244 12.1307 6.70062 12.3267 6.70062H13.2635C13.461 6.70062 13.5595 6.90376 13.5595 7.05599C13.314 8.21776 11.992 8.9267 10.7145 8.93236H10.6995ZM28.9433 8.93236C27.0203 8.93236 25.7878 7.36019 25.7878 5.58513C25.7878 3.86407 26.9177 2.29447 28.8827 2.28856H28.8953C31.0653 2.28856 32.0028 3.91113 32.0028 5.58513C32.0028 5.93999 31.8553 6.14313 31.4603 6.14313H27.4653C27.5145 6.85285 28.106 7.51242 28.8948 7.51242C29.4865 7.51242 29.881 7.30927 30.1772 6.90376C30.2265 6.80244 30.3743 6.70062 30.5715 6.70062H31.5082C31.7057 6.70062 31.8057 6.90376 31.8057 7.05599C31.5602 8.21776 30.2383 8.9267 28.9608 8.93236H28.9457H28.9433ZM18.835 0.209302H5.8675C5.57175 0.209302 5.3745 0.462845 5.3745 0.767302L5.42375 5.9909C5.42375 5.9909 2.61375 0.817702 2.465 0.513759C2.3175 0.310616 2.022 0.0570733 1.6275 0.0570733H0.5425C0.24675 0.0570733 0 0.310616 0 0.615073V8.27279C0 8.5775 0.24675 8.83079 0.5425 8.83079H1.233C1.5285 8.83079 1.7755 8.5775 1.7755 8.27279L1.7255 2.89722C1.7255 2.89722 4.53675 8.12056 4.6845 8.3237C4.8325 8.62816 5.1285 8.83079 5.52275 8.83079H6.51025C6.807 8.83079 7.00275 8.5775 7.00275 8.27279V1.52793H18.8353C19.0328 1.52793 19.2302 1.32479 19.2302 1.12242V0.564416C19.2302 0.361788 19.0328 0.209559 18.8353 0.209559L18.835 0.209302ZM27.4643 4.87516H30.3237C30.2747 4.16544 29.6388 3.61002 28.9025 3.60745H28.8937C28.1572 3.60745 27.5672 4.1603 27.4655 4.86487L27.4643 4.87259V4.87516ZM9.26975 4.87516H12.1298C12.0297 4.16544 11.3948 3.61002 10.6573 3.60745H10.6497C9.96225 3.60745 9.32275 4.1603 9.26975 4.86487V4.87259V4.87516ZM26.2297 0.817445V1.1723C26.2297 1.32402 26.3272 1.47573 26.4753 1.47573H31.4058C31.652 1.47573 31.8493 1.27259 31.8493 1.01853V0.411673C31.8493 0.20853 31.6518 -0.0450124 31.4053 0.00538758C31.4053 0.00538758 26.6227 0.462073 26.4753 0.51273C26.3278 0.51273 26.2283 0.665216 26.2283 0.817188L26.2297 0.817445Z" fill="black"/>
</g>
<defs>
<clipPath id="clip0_39011_1074">
<rect width="32" height="9" fill="white"/>
</clipPath>
</defs>
</svg>
