<svg width="32" height="32" viewBox="0 0 32 32" fill="none" xmlns="http://www.w3.org/2000/svg">
<g clip-path="url(#clip0_39011_960)">
<path d="M15.9997 32L20.4957 6.715C24.7807 6.715 26.1327 7.185 26.3282 9.103C26.3282 9.103 29.2032 8.031 30.6532 5.854C24.9952 3.232 19.3102 3.114 19.3102 3.114L15.9927 7.154L16.0002 7.1535L12.6827 3.1135C12.6827 3.1135 6.99819 3.232 1.34019 5.8535C2.78869 8.0305 5.66519 9.1025 5.66519 9.1025C5.86169 7.1845 7.21169 6.7145 11.4682 6.7115L15.9997 32ZM15.9982 1.9465C20.5717 1.9115 25.8072 2.654 31.1662 4.99C31.8827 3.701 32.0662 3.131 32.0662 3.131C26.2082 0.813 20.7222 0.02 15.9982 0C11.2732 0.02 5.78719 0.813 -0.0703125 3.131C-0.0703125 3.131 0.191188 3.833 0.829687 4.99C6.18819 2.654 11.4232 1.9115 15.9982 1.9465Z" fill="#E82127"/>
</g>
<defs>
<clipPath id="clip0_39011_960">
<rect width="32" height="32" fill="white"/>
</clipPath>
</defs>
</svg>
